<?xml version="1.0" encoding="UTF-8"?>
<svg id="KK_Mark" xmlns="http://www.w3.org/2000/svg" version="1.1" viewBox="0 0 124.1 127.6">
  <!-- Generator: Adobe Illustrator 29.1.0, SVG Export Plug-In . SVG Version: 2.1.0 Build 142)  -->
  <defs>
    <style>
      .st0 {
        fill: none;
      }

      .st1 {
        fill: #000c2e;
      }
    </style>
  </defs>
  <g>
    <rect class="st0" width="124.1" height="127.6"/>
    <g>
      <rect class="st0" x="102.8" width="21.3" height="21.3"/>
      <rect class="st0" x="102.8" y="106.3" width="21.3" height="21.3"/>
      <rect class="st0" width="21.3" height="21.3"/>
      <rect class="st0" y="106.3" width="21.3" height="21.3"/>
    </g>
  </g>
  <path class="st1" d="M64.8,47.9v.4h-8.3v-.4h0c0-1,4.2-7.3,4.2-7.3,0,0,4.2,6.3,4.2,7.3h0ZM70.7,41.1c-.7,0-1.4.2-1.9.7h0c.3,0,.7,0,1,0,.8.2,1.4.8,1.5,1.6.2,1.3-.8,2.4-2,2.4s-.4,0-.6,0h0c.5.4,1.1.7,1.8.7,1.5,0,2.8-1.3,2.7-2.8,0-1.4-1.2-2.5-2.5-2.6M65,56.1s-.3-2.1-.3-2.8c0-1,1-1.4,1-1.4v-2.3c0,0-1.7,0-1.7,0l-.2,1.4h-1.6l-.2-1.4h-2.5l-.2,1.4h-1.6l-.2-1.4h-1.8v2.3c0,0,1.1.4,1.1,1.4s-.3,2.8-.3,2.8h8.6,0ZM49.7,53.9v-.6c0-1.7-1.2-2.7-2.7-2.7s-2.7,1.1-2.7,2.7v.6h5.5,0ZM66.3,57.4h-11.3v1.7s.7.3.7,1.1c0,1.6-1.2,7.7-1,12.2h3.9l.3-4.2c0-1.1.8-1.7,1.7-1.7s1.6.6,1.7,1.7l.3,4.2h3.9c.2-4.5-1-10.6-1-12.2s.7-1.1.7-1.1v-1.7M62,38.4c0-.8-.6-1.4-1.4-1.4s-1.4.6-1.4,1.4.6,1.4,1.4,1.4,1.4-.6,1.4-1.4M49.6,60.5h.7v-1s-.9-.2-.9-1.1h0v-.9l.8-.7.2-1.8h-1.2l-.2,1.3h-1.2l-.2-1.3h-1.4l-.2,1.3h-1.2l-.2-1.3h-1.2l.2,1.8.8.7v.9h0c0,.9-.9,1.1-.9,1.1v1h.7c0,3.4-1.7,8.3-1.7,11.9h8.8c0-3.7-1.7-8.6-1.7-11.9h0ZM77.1,53.9v-.6c0-1.7-1.2-2.7-2.7-2.7s-2.7,1.1-2.7,2.7v.6h5.5-.1ZM77,60.5h.7v-1s-.9-.2-.9-1.1h0v-.9l.8-.7.2-1.8h-1.2l-.2,1.3h-1.2l-.2-1.3h-1.4l-.2,1.3h-1.2l-.2-1.3h-1.2l.2,1.8.8.7v.9h0c0,.9-.9,1.1-.9,1.1v1h.7c0,3.4-1.7,8.3-1.7,11.9h8.8c0-3.7-1.7-8.6-1.7-11.9h0ZM49.8,42.6l-2.1-.5,1.5,1.6-1.5,1.6,2.1-.5.7,2.1.7-2.1,2.1.5-1.5-1.6,1.5-1.6-2.1.5-.7-2.1-.7,2.1ZM79.4,74.1c-2.7,0-4.1,1-5.3,1.7-1.1.6-2.1,1.2-4.1,1.2s-3-.6-4.1-1.2c-1.2-.7-2.6-1.5-5.3-1.5s-4.1.8-5.3,1.5c-1.1.6-2.1,1.2-4.1,1.2s-3-.6-4.1-1.2c-1.2-.7-2.7-1.7-5.3-1.7s-3.7.5-3.7.5l1.5,2.5s1.2-.2,2.3-.2c2,0,3.1.6,4.2,1.2,1.2.7,2.3,1.6,5,1.6s4.2-.9,5.4-1.6c1.1-.6,2.2-1.1,4.2-1.1s3.1.5,4.2,1.1c1.2.7,2.7,1.6,5.4,1.6s3.7-1,5-1.6c1.1-.6,2.2-1.2,4.2-1.2s2.3.2,2.3.2l1.5-2.5s-2-.5-3.7-.5h-.2ZM74,81.6c-1.1.6-2.2,1-4.1,1s-3-.5-4.1-1c-1.2-.7-2.6-1.5-5.1-1.5s-4,.9-5.1,1.5-2.1,1-4.1,1-3-.4-4.1-1c-1.2-.7-2.8-1.8-5.5-1.5,4.1,5.3,9.7,5.2,9.7,5.2,2.5,0,3.9-.5,5.1-1.2,1.1-.6,2.2-1.3,4.1-1.3s3,.7,4.1,1.3c1.2.7,2.6,1.2,5.1,1.2,0,0,5.6,0,9.7-5.2-2.7-.3-4.3.8-5.5,1.5h-.2ZM60.7,85.8c-2.6,0-3.7,1.9-7.1,1.9,1.3.4,4.2,1,7.1,1s5.8-.6,7.1-1c-3.4,0-4.5-1.9-7.1-1.9ZM85.3,98.5l1.4-1.1-6.5-4.1-1.5.9,1,7.6,1.5-.8-.2-1.6,3-1.9,1.3.9h0ZM80.8,98l-.4-2.8,2.4,1.6-1.9,1.2h0ZM47.6,96.8l5.1,1.6-.4,1.3-3.5-1.1-.4,1.3,2.9.9-.4,1.3-2.9-.9-.4,1.4,3.5,1.1-.4,1.3-5.1-1.6,2.1-6.7h0ZM47.9,30.6l-4.8,2.3-.6-1.3,3.3-1.6-.6-1.2-2.8,1.3-.6-1.3,2.8-1.3-.6-1.3-3.3,1.6-.6-1.3,4.8-2.3s3,6.4,3,6.4ZM96,58.9l-.4-1.6,2.7-.6c-.8-.9-2.1-1.7-3.2-2l-.4-1.7c1.3.2,2.9,1.2,3.8,2.1l3-4,.4,2-2.5,3.2,3-.7.4,1.6-6.9,1.5v.2ZM100.7,74.8l-.8-1.4c.8-.4,1.2-1,1.4-1.7,0-.7,0-1.2-.6-1.3-.6,0-1,.5-1.2,1.2-.5,1.3-1.2,2.4-2.7,2.1-1.3-.3-1.9-1.5-1.6-3.1.2-1.1.7-1.9,1.6-2.5l.8,1.4c-.5.3-.9.8-1,1.5s0,1.1.4,1.2c.5,0,.9-.4,1.1-1.2.5-1.4,1.2-2.5,2.8-2.2,1.6.3,2.1,1.7,1.8,3.3-.3,1.3-.9,2.2-2,2.8h0ZM39.4,92.2l2.3,1.6c1.7,1.1,1.9,2.1,1.2,3-.4.5-.9.8-1.6.7.6.7.7,1.5.2,2.2-.7,1-1.8,1.3-3.5.2l-2.7-1.8,4-5.8h0ZM38.7,98.8c.6.4,1.1.3,1.4,0,.3-.4.2-.9-.4-1.3l-1.3-.9-1,1.4,1.3.9h0ZM40,96.2c.5.4,1,.4,1.3,0s.2-.8-.4-1.2l-.9-.6-.9,1.3.9.6h0ZM27.6,76.7l.7,1.5-2.5,1.2c1,.7,2.5,1.2,3.6,1.2l.8,1.6c-1.3,0-3.1-.5-4.2-1.2l-2,4.6-.9-1.9,1.7-3.7-2.8,1.4-.7-1.5,6.4-3.1h-.1ZM90.7,82.7l.7-1.3,5.5-1.3-3.9-1.8.7-1.5,6.4,3.1-.7,1.5h-.2c-.2-.2-.6-.2-1,0l-4.8,1.1,4.3,2.2-.7,1.5-6.3-3.3v-.2ZM58.1,28.2l-1.5.2-4.3-3.6.8,4.2-1.6.3-1.3-6.9,1.6-.3v.2c0,.2.3.5.6.8l3.8,3.2-.8-4.7,1.6-.3,1.1,7h0ZM83.7,90.8l1.4-1.2,5.2,2-2.3-5.1,1.1-1.4,3.2,7.3-1.2,1.3-7.4-2.8h0ZM36.2,89.4v-.9h-1.1c0-.2-.2-.5-.4-.8-1-1.9-3.3-2.7-5.2-1.6-1.3.7-2,2-2,3.3h-1c0,0,.1,1,.1,1h1c0,.2.2.6.4.9,1,1.9,3.3,2.7,5.2,1.6,1.3-.7,2-2,2-3.4h1ZM30.3,87.4c1.1-.6,2.5-.2,3.1.9,0,0,0,.2.2.4l-4.4.5c0-.7.5-1.4,1.2-1.7h-.1ZM32.4,91.4c-1.1.6-2.5.2-3.1-.9,0,0-.1-.3-.2-.4l4.4-.5c0,.7-.5,1.4-1.2,1.8h.1ZM87,30.2l1.3,1-2.7,3.8,4.5-1.9.7.7-1.8,4.5,3.7-2.8,1.1,1.3-5.8,4-1.2-1.2,1.8-4.4-4.4,1.8-1.2-1.2,4-5.8v.2ZM74.3,23.3l1.6.6-1.3,4.5,3.5-3.3.9.4-.2,4.8,2.6-3.9,1.4.8-4.1,5.7-1.5-.7.2-4.7-3.5,3.2-1.5-.7,1.8-6.8h0ZM56.7,99.1h1.5l3.6,4.4v-4.3h1.6v7.1h-1.6v-.2c0-.2,0-.6-.4-.9l-3.1-3.8v4.8h-1.8l.2-7.1ZM68.8,24.9l-.5,4.1-1.7-.2.5-3.7c.2-1.2,0-2-1.3-2.2-1.2-.1-1.6.6-1.8,1.8l-.5,3.7-1.7-.2.5-4c.2-1.9,1.5-3.1,3.7-2.8,2.1.3,3.1,1.7,2.8,3.6h0ZM98.6,43.9c-1-1.9-3.2-2.7-5.2-1.7s-2.6,3.3-1.6,5.2,3.2,2.7,5.2,1.7,2.6-3.3,1.6-5.2ZM96.3,47.7c-1.1.6-2.5.2-3.1-.9-.6-1.1-.2-2.5,1-3.1,1.1-.6,2.5-.2,3.1,1,.6,1.1.2,2.5-1,3.1h0ZM73.4,101.3l-3.1.9.8,2.8-1.6.5-1.9-6.8,1.6-.5.7,2.6,3.1-.9-.8-2.6,1.6-.5,2.1,6.7-1.6.5-.9-2.8h0Z"/>
</svg>
